<?xml version="1.0" standalone="no"?>
<!DOCTYPE svg PUBLIC "-//W3C//DTD SVG 20010904//EN"
 "http://www.w3.org/TR/2001/REC-SVG-20010904/DTD/svg10.dtd">
<svg version="1.0" xmlns="http://www.w3.org/2000/svg"
 width="360.000000pt" height="360.000000pt" viewBox="0 0 360.000000 360.000000"
 preserveAspectRatio="xMidYMid meet">
<metadata>
Created by potrace 1.11, written by Peter Selinger 2001-2013
</metadata>
<g transform="translate(0.000000,360.000000) scale(0.100000,-0.100000)"
fill="#000000" stroke="none">
<path d="M1600 3524 c-14 -2 -68 -11 -120 -20 -220 -37 -493 -153 -690 -292
-122 -86 -316 -280 -402 -402 -139 -196 -251 -461 -294 -695 -27 -142 -27
-488 0 -630 43 -234 155 -499 294 -695 86 -122 280 -316 402 -402 196 -139
461 -251 695 -294 142 -27 488 -27 630 0 234 43 499 155 695 294 122 86 316
280 402 402 139 196 251 461 294 695 27 142 27 488 0 630 -43 234 -155 499
-294 695 -86 122 -280 316 -402 402 -188 134 -436 241 -670 290 -73 15 -145
20 -305 23 -115 2 -221 1 -235 -1z"/>
</g>
</svg>
